<svg xmlns="http://www.w3.org/2000/svg"  viewBox="0 0 512 512" width="512px" height="512px"><path d="M 249 17.5 C 218.614 33.815 195.44139 60.859609 181.40039 95.099609 A 164.722 164.722 0 0 0 249 112.72461 L 249 17.5 z M 263 17.5 L 263 112.71875 A 162.49 162.49 0 0 0 330.48828 94.818359 C 316.43528 60.711359 293.3 33.771 263 17.5 z M 220.99023 19.066406 A 162.935 162.935 0 0 0 139.47461 64.417969 A 159.688 159.688 0 0 0 169.08984 88.152344 C 180.89184 60.068344 198.51223 36.483406 220.99023 19.066406 z M 291.07617 19.117188 C 313.42517 36.455187 330.96395 59.899969 342.75195 87.792969 A 160.333 160.333 0 0 0 372.15039 63.931641 A 163.5 163.5 0 0 0 291.07617 19.117188 z M 381.56641 74.330078 A 174.4 174.4 0 0 1 347.83008 101.13086 A 231.9 231.9 0 0 1 359.48828 161.60938 L 418.14258 161.60938 A 162.476 162.476 0 0 0 381.56641 74.330078 z M 130.09961 74.855469 A 162.272 162.272 0 0 0 93.845703 161.60938 L 152.51172 161.60938 A 232.124 232.124 0 0 1 164.05273 101.48633 A 173.874 173.874 0 0 1 130.09961 74.855469 z M 335.35156 108.05078 A 176.5 176.5 0 0 1 263 126.73047 L 263 161.60938 L 345.45312 161.60938 A 218.591 218.591 0 0 0 335.35156 108.05078 z M 176.5625 108.32422 A 218.69 218.69 0 0 0 166.54688 161.60938 L 249 161.60938 L 249 126.73438 A 178.774 178.774 0 0 1 176.5625 108.32422 z M 166.01562 175.60742 C 166.00663 176.49942 165.97852 177.37753 165.97852 178.26953 C 165.97852 203.12253 169.54212 226.60173 176.57812 248.17773 A 177.528 177.528 0 0 1 211.57812 235.20508 L 211.70117 235.17578 A 48.148 48.148 0 0 1 249 210.08398 L 249 175.60742 L 166.01562 175.60742 z M 93.033203 175.60938 C 93.019203 176.49537 93 177.38053 93 178.26953 C 93 180.73453 93.0765 183.20392 93.1875 185.66992 A 39 39 0 0 1 113.69922 179.86328 L 116.76953 179.86328 A 39.3 39.3 0 0 1 153.31445 204.83398 A 260.873 260.873 0 0 1 151.97656 178.26953 C 151.97656 177.37753 152.00467 176.49738 152.01367 175.60938 L 93.033203 175.60938 z M 263 175.60938 L 263 210.08594 A 48.151 48.151 0 0 1 300.33789 235.24609 A 174.36 174.36 0 0 1 335.35352 248.38281 C 342.43452 226.76081 346.02148 203.21153 346.02148 178.26953 C 346.02148 177.37753 345.99338 176.49738 345.98438 175.60938 L 263 175.60938 z M 359.98438 175.60938 C 359.99138 176.50037 360.02148 177.37753 360.02148 178.26953 A 260.63 260.63 0 0 1 358.68164 204.83789 A 39.3 39.3 0 0 1 395.22852 179.86328 L 398.29883 179.86328 A 39 39 0 0 1 418.81445 185.66992 C 418.92445 183.20292 419.00195 180.73453 419.00195 178.26953 C 419.00195 177.38153 418.9837 176.49537 418.9707 175.60938 L 359.98438 175.60938 z M 113.69922 193.86328 A 25.27 25.27 0 0 0 88.460938 219.10547 L 88.460938 235.6875 A 25.27 25.27 0 0 0 113.69922 260.92969 L 116.76953 260.92969 A 25.27 25.27 0 0 0 142.01172 235.6875 L 142.01172 219.10547 A 25.27 25.27 0 0 0 116.76953 193.86328 L 113.69922 193.86328 z M 395.23047 193.86328 A 25.27 25.27 0 0 0 369.98828 219.10547 L 369.98828 235.6875 A 25.27 25.27 0 0 0 395.23047 260.92969 L 398.30078 260.92969 A 25.27 25.27 0 0 0 423.54297 235.6875 L 423.54297 219.10547 A 25.27 25.27 0 0 0 398.30078 193.86328 L 395.23047 193.86328 z M 254.04492 223.81836 A 34.1 34.1 0 0 0 219.98438 257.87891 L 219.98438 278.99414 A 34.1 34.1 0 0 0 254.04492 313.05273 L 257.95508 313.05273 A 34.1 34.1 0 0 0 292.01562 278.99414 L 292.01562 257.87891 A 34.1 34.1 0 0 0 257.95508 223.81836 L 254.04492 223.81836 z M 102.09375 280.72656 A 7 7 0 0 0 95.464844 289.97656 L 102.2207 309.87695 A 7 7 0 0 0 108.84961 314.62695 L 123.49023 314.62695 A 7 7 0 0 0 130.11523 309.88672 L 136.86914 290.08789 A 7 7 0 0 0 130.26953 280.82617 L 102.11914 280.72656 L 102.09375 280.72656 z M 383.62305 280.72656 A 7 7 0 0 0 376.99414 289.97656 L 383.75195 309.87695 A 7 7 0 0 0 390.38086 314.62695 L 405.01953 314.62695 A 7 7 0 0 0 411.64453 309.88672 L 418.40039 290.08789 A 7 7 0 0 0 411.80078 280.82617 L 383.64844 280.72656 L 383.62305 280.72656 z M 71.423828 292.28125 A 28.456 28.456 0 0 0 43 320.70508 L 43 399.46875 L 100.35938 399.46875 L 103.80469 356.51367 L 77.886719 292.28125 L 71.423828 292.28125 z M 152.76172 292.28125 L 129.33789 356.49023 L 132.78516 399.46875 L 148.09375 399.46875 L 148.09375 387.26367 A 52.2 52.2 0 0 1 187.47461 336.73047 L 187.47461 320.70508 A 28.456 28.456 0 0 0 159.05078 292.28125 L 152.76172 292.28125 z M 352.94922 292.28125 A 28.456 28.456 0 0 0 324.52539 320.70508 L 324.52539 336.73047 A 52.2 52.2 0 0 1 363.90625 387.26367 L 363.90625 399.46875 L 381.88477 399.46875 L 385.33008 356.51367 L 359.41211 292.28125 L 352.94922 292.28125 z M 434.28711 292.28125 L 410.86328 356.49023 L 414.31055 399.46875 L 469 399.46875 L 469 320.70508 A 28.456 28.456 0 0 0 440.57617 292.28125 L 434.28711 292.28125 z M 239.77344 338.26562 A 7 7 0 0 0 233.51367 348.39648 L 242.83594 367.04102 A 7 7 0 0 0 249.04492 370.91016 L 266.25195 371.03711 L 266.30273 371.03711 A 7 7 0 0 0 272.56445 367.16797 L 281.88672 348.52344 A 7 7 0 0 0 281.58594 341.72266 A 7 7 0 0 0 275.64844 338.39258 L 239.79883 338.26562 L 239.77344 338.26562 z M 200.19922 349.15234 A 38.154 38.154 0 0 0 162.08984 387.26367 L 162.08984 479.24609 L 237.20117 479.24609 L 238.50195 453.48047 L 209.90039 349.15234 L 200.19922 349.15234 z M 302.24805 349.15234 L 276.59961 453.91992 L 276.65625 455.14453 L 277.91016 479.24414 L 349.90234 479.24414 L 349.90234 387.26562 A 38.154 38.154 0 0 0 311.80078 349.15234 L 302.24805 349.15234 z M 398.09766 372.43555 L 394.42578 418.20117 L 398.1875 420.67773 L 401.77344 418.25586 L 398.09766 372.43555 z M 116.57227 372.43945 L 112.90039 418.20117 L 116.66016 420.67773 L 120.24609 418.25586 L 116.57227 372.43945 z M 255.75 389.60156 L 250.68555 489.91016 L 257.69531 494.49609 L 264.45117 489.9668 L 262.67773 455.83008 L 259.61523 389.63086 L 255.75 389.60156 z"/></svg>